<?xml version="1.0" encoding="iso-8859-1"?><svg width="1024" height="1017" viewBox="0 0 1024 1017" xmlns="http://www.w3.org/2000/svg" xmlns:xlink="http://www.w3.org/1999/xlink"><svg viewBox="0 0 504.124 504.124" width="504.12" height="504.12" id="package" y="512" xmlns="http://www.w3.org/2000/svg"><path d="M15.754 133.909l236.308 118.154L488.37 133.909v252.062L252.062 504.123 15.754 385.969v-252.06z" fill="#db5449"/><path d="M15.754 157.538v73.649l235.52 115.397 237.095-115.791v-73.255L252.062 273.33 15.754 157.538z" fill="#c54b42"/><path d="M252.062 504.123v-252.06L31.508 141.786H15.754v244.185l236.308 118.152z" fill="#d05045"/><path d="M15.754 157.538v73.649l235.52 115.397.788-.394v-73.255.394L15.754 157.538z" fill="#bb483e"/><path d="M0 125.638L252.062.001l252.062 125.637v16.542L252.062 267.815 0 142.573v-16.935z" fill="#eb6258"/><path d="M396.603 39.779c-8.271-14.966-25.994-24.025-46.868-24.025-47.655 0-81.132 44.505-97.674 72.862-16.542-28.357-50.412-72.468-97.674-72.468-30.326 0-51.988 18.511-51.988 43.717 0 44.898 49.231 74.043 148.086 74.043s151.237-37.415 151.237-73.649c.001-7.089-1.574-14.178-5.119-20.48zM164.628 88.223c-11.028-7.483-14.966-15.754-14.966-21.268 0-6.695 6.302-11.815 15.36-11.815 21.268 0 38.203 27.963 47.655 47.262-24.812-1.97-39.385-8.666-48.049-14.179zm174.867 0c-8.665 5.514-23.237 12.209-48.049 14.178 9.058-19.298 25.994-47.262 47.655-47.262 9.058 0 15.36 5.12 15.36 11.815.001 5.515-3.938 13.785-14.966 21.269z" fill="#efefef"/><path d="M0 126.032l252.062 123.274 252.062-123.274v81.526l-252.85 123.274L0 207.558v-81.526z" fill="#e2574c"/><path d="M346.585 213.859v-9.058l-94.523-51.2-94.523 51.2v9.058L94.524 186.29v-12.603l154.387-81.526 3.151 1.575 3.151-1.575L409.6 173.293v12.603l-63.015 27.963z" fill="#efefef"/><path d="M346.585 204.801v251.668l63.015-31.508V173.293l-63.015 31.508z" fill="#dcdcdc"/><path d="M94.523 425.354l63.015 31.508V205.195l-63.015-31.902v252.061z" fill="#d1d1d1"/></svg><svg viewBox="0 0 512 512" width="512" height="512" id="santa" xmlns="http://www.w3.org/2000/svg"><circle cx="399.61" cy="57.832" r="48.46" fill="#eeeded"/><path d="M414.745 83.719c-26.763 0-48.459-21.696-48.459-48.459 0-5.089.789-9.994 2.244-14.602-10.621 8.889-17.381 22.24-17.381 37.174 0 26.763 21.696 48.459 48.459 48.459 21.674 0 40.02-14.23 46.215-33.856-8.414 7.041-19.249 11.284-31.078 11.284z" opacity=".1"/><circle cx="74.5" cy="253.86" r="46.861" fill="#f7c2ad"/><path d="M74.495 284.117c-16.685 0-30.259-13.574-30.259-30.259s13.574-30.259 30.259-30.259 30.26 13.574 30.26 30.259-13.575 30.259-30.26 30.259zm0-45.518c-8.414 0-15.259 6.845-15.259 15.259s6.845 15.259 15.259 15.259 15.26-6.845 15.26-15.259-6.846-15.259-15.26-15.259z" opacity=".2" fill="#e86478"/><path d="M74.495 206.997c-3.109 0-6.146.31-9.086.888-3.544 14.747-5.435 30.138-5.435 45.973s1.891 31.225 5.435 45.973c2.94.578 5.977.888 9.086.888 25.881 0 46.861-20.98 46.861-46.861s-20.98-46.861-46.861-46.861z" opacity=".1"/><circle cx="437.5" cy="253.86" r="46.861" fill="#f7c2ad"/><path d="M437.505 284.117c-16.685 0-30.26-13.574-30.26-30.259s13.575-30.259 30.26-30.259 30.259 13.574 30.259 30.259-13.574 30.259-30.259 30.259zm0-45.518c-8.414 0-15.26 6.845-15.26 15.259s6.846 15.259 15.26 15.259 15.259-6.845 15.259-15.259-6.845-15.259-15.259-15.259z" opacity=".2" fill="#e86478"/><path d="M437.505 206.997c3.109 0 6.146.31 9.086.888 3.544 14.747 5.435 30.138 5.435 45.973s-1.891 31.225-5.435 45.973c-2.94.578-5.977.888-9.086.888-25.881 0-46.861-20.98-46.861-46.861s20.98-46.861 46.861-46.861z" opacity=".1"/><circle cx="256" cy="253.86" r="179.38" fill="#f7c2ad"/><g fill="#eeeded"><path d="M256 71.57c-100.675 0-182.288 81.613-182.288 182.288S155.325 436.147 256 436.147s182.289-81.613 182.289-182.289C438.289 153.183 356.675 71.57 256 71.57zm0 334.001c-83.789 0-151.713-67.924-151.713-151.713S172.211 102.145 256 102.145s151.713 67.924 151.713 151.713S339.789 405.571 256 405.571z"/><path d="M367.206 263.551a92.807 92.807 0 0 0-21.427 1.765c-10.566 2.129-21.613-.557-29.791-7.577-16.12-13.837-37.078-22.199-59.989-22.199s-43.868 8.362-59.989 22.199c-8.178 7.02-19.225 9.706-29.791 7.577a92.807 92.807 0 0 0-21.427-1.765c-47.51 1.576-86.416 39.691-88.893 87.163-2.772 53.138 39.493 97.092 92.024 97.092 1.197 0 2.388-.023 3.574-.069a23.408 23.408 0 0 1 21.895 12.991C188.458 491.112 219.788 512 256 512s67.542-20.888 82.606-51.272a23.411 23.411 0 0 1 21.895-12.991c1.186.046 2.377.069 3.574.069 52.531 0 94.797-43.955 92.024-97.092-2.477-47.472-41.383-85.588-88.893-87.163z"/></g><path d="M376.897 428.351a94.24 94.24 0 0 1-3.574-.068 23.408 23.408 0 0 0-21.895 12.991 92.06 92.06 0 0 1-7.425 12.392 23.426 23.426 0 0 1 16.497-5.929c1.186.046 2.377.069 3.574.069 36.35 0 67.78-21.05 82.778-51.622-16.9 19.691-41.97 32.167-69.955 32.167zm-108.075 64.195c-36.212 0-67.542-20.888-82.606-51.272a23.411 23.411 0 0 0-21.895-12.991 94.24 94.24 0 0 1-3.574.068c-52.531 0-94.797-43.954-92.024-97.092.661-12.665 3.936-24.652 9.254-35.469-12.833 14.952-20.986 34.029-22.076 54.923-2.772 53.137 39.493 97.092 92.024 97.092 1.197 0 2.388-.023 3.574-.069a23.41 23.41 0 0 1 21.895 12.991C188.458 491.112 219.788 512 256 512s67.542-20.888 82.606-51.272c.077-.155.166-.3.245-.453-16.9 19.748-41.998 32.271-70.029 32.271z" opacity=".1"/><path d="M427.72 156.448C427.72 70.044 350.838 0 256 0S84.28 70.044 84.28 156.448h343.44z" fill="#e86478"/><path d="M426.867 140.796H116.825c0-54.052 30.088-101.701 75.837-129.806C129.172 33.958 84.28 90.425 84.28 156.448h343.44c0-5.283-.292-10.503-.853-15.652z" opacity=".1"/><path d="M393.859 134.59H118.141a182.084 182.084 0 0 0-34.534 59.903c1.602.263 3.244.406 4.921.406h334.946c1.676 0 3.319-.143 4.921-.406a182.107 182.107 0 0 0-34.536-59.903z" opacity=".1"/><path d="M423.473 179.818H88.527c-16.654 0-30.155-13.501-30.155-30.155 0-16.654 13.501-30.155 30.155-30.155h334.946c16.654 0 30.155 13.501 30.155 30.155 0 16.654-13.501 30.155-30.155 30.155z" fill="#eeeded"/><path d="M437.436 165.806H102.489c-16.654 0-30.155-13.501-30.155-30.155 0-4.696 1.074-9.14 2.989-13.103-10.036 4.896-16.951 15.196-16.951 27.114 0 16.654 13.501 30.155 30.155 30.155h334.946c11.958 0 22.29-6.961 27.166-17.052a30.022 30.022 0 0 1-13.203 3.041z" opacity=".1"/><g fill="#485458"><path d="M177.248 227.982a7.5 7.5 0 0 1-7.5-7.5V207.41a7.5 7.5 0 0 1 15 0v13.073a7.5 7.5 0 0 1-7.5 7.499zM334.752 227.982a7.5 7.5 0 0 1-7.5-7.5V207.41a7.5 7.5 0 0 1 15 0v13.073a7.5 7.5 0 0 1-7.5 7.499zM256 294.747a35.036 35.036 0 0 1-26.417-12.032 7.5 7.5 0 0 1 11.308-9.855c3.814 4.376 9.321 6.886 15.108 6.886s11.294-2.51 15.108-6.886a7.5 7.5 0 0 1 11.309 9.855A35.036 35.036 0 0 1 256 294.747z"/></g></svg><svg viewBox="0 0 512 512" width="512" height="512" id="tree" x="512" xmlns="http://www.w3.org/2000/svg"><path d="M302.455 389.417h-92.91L192.256 485.2c-1.822 10.095 4.75 19.798 14.8 21.851a244.519 244.519 0 0 0 97.888 0c10.051-2.053 16.622-11.756 14.8-21.851l-17.289-95.783z" fill="#aa715f"/><path d="M302.455 389.417h-92.91l-9.175 50.827a584.122 584.122 0 0 0 111.259 0l-9.174-50.827z" opacity=".1"/><path d="M229.387 206.257L75.448 336.858c-18.709 15.873-12.425 46.16 11.055 53.279a584.155 584.155 0 0 0 338.994 0c23.48-7.119 29.764-37.407 11.055-53.279L282.613 206.257c-15.352-13.025-37.874-13.025-53.226 0z" fill="#61c6ad"/><path d="M282.613 206.257c-15.352-13.024-37.874-13.024-53.225 0l-105.706 89.681a524.63 524.63 0 0 0 264.638 0l-105.707-89.681z" opacity=".1"/><path d="M232.099 107.017L93.845 224.312c-16.803 14.256-11.159 41.457 9.928 47.851a524.63 524.63 0 0 0 304.453 0c21.087-6.394 26.731-33.595 9.928-47.851L279.901 107.017c-13.787-11.697-34.015-11.697-47.802 0z" fill="#61c6ad"/><path d="M232.099 107.017L93.845 224.312c-16.803 14.256-11.159 41.457 9.928 47.851a524.63 524.63 0 0 0 304.453 0c21.087-6.394 26.731-33.595 9.928-47.851L279.901 107.017c-13.787-11.697-34.015-11.697-47.802 0z" opacity=".15"/><path d="M279.901 107.017c-13.787-11.697-34.015-11.697-47.802 0l-84.193 71.43a465.093 465.093 0 0 0 216.189 0l-84.194-71.43z" opacity=".1"/><path d="M234.811 7.778L112.242 111.765c-14.897 12.638-9.893 36.754 8.802 42.422a465.105 465.105 0 0 0 269.912 0c18.695-5.668 23.699-29.784 8.802-42.422L277.189 7.778c-12.223-10.371-30.155-10.371-42.378 0z" fill="#61c6ad"/><circle cx="326.78" cy="174.16" r="40.5" opacity=".1"/><path d="M149.719 242.712c-19.221 0-35.303 13.394-39.45 31.355a525.26 525.26 0 0 0 30.06 7.747l-25.625 21.74c7.017 12.051 20.065 20.158 35.015 20.158 22.368 0 40.5-18.132 40.5-40.5s-18.132-40.5-40.5-40.5z" opacity=".1"/><circle cx="367.28" cy="314.81" r="40.5" opacity=".1"/><path d="M224.85 362.177c-22.367 0-40.5 18.133-40.5 40.5 0 2.83.292 5.591.845 8.257a584.51 584.51 0 0 0 20.085 2.11l-4.064 22.512a40.303 40.303 0 0 0 23.634 7.62c22.368 0 40.5-18.132 40.5-40.5 0-22.367-18.132-40.499-40.5-40.499z" opacity=".1"/><circle cx="202.57" cy="117.47" r="40.5" opacity=".1"/><path d="M333.66 134.283a7.5 7.5 0 0 1-7.5-7.5v-15.314a7.5 7.5 0 0 1 15 0v15.314a7.5 7.5 0 0 1-7.5 7.5z" fill="#485458"/><circle cx="333.66" cy="167.28" r="40.5" fill="#eeeded"/><path d="M342.308 199.135c-22.367 0-40.5-18.132-40.5-40.5a40.312 40.312 0 0 1 7.869-23.983c-10.015 7.373-16.517 19.241-16.517 32.631 0 22.367 18.133 40.5 40.5 40.5 13.39 0 25.258-6.502 32.631-16.517a40.308 40.308 0 0 1-23.983 7.869z" opacity=".1"/><path d="M156.6 243.331a7.5 7.5 0 0 1-7.5-7.5v-15.315a7.5 7.5 0 0 1 15 0v15.315a7.5 7.5 0 0 1-7.5 7.5z" fill="#485458"/><circle cx="156.6" cy="276.33" r="40.5" fill="#eeeded"/><path d="M165.248 308.183c-22.368 0-40.5-18.132-40.5-40.5a40.312 40.312 0 0 1 7.869-23.983c-10.015 7.373-16.517 19.241-16.517 32.631 0 22.368 18.132 40.5 40.5 40.5 13.39 0 25.258-6.502 32.631-16.517a40.312 40.312 0 0 1-23.983 7.869z" opacity=".1"/><path d="M374.16 274.931a7.5 7.5 0 0 1-7.5-7.5v-15.315a7.5 7.5 0 0 1 15 0v15.315a7.5 7.5 0 0 1-7.5 7.5z" fill="#485458"/><circle cx="374.16" cy="307.93" r="40.5" fill="#f8ca4f"/><path d="M382.808 339.783c-22.367 0-40.5-18.133-40.5-40.5a40.312 40.312 0 0 1 7.869-23.983c-10.015 7.373-16.517 19.241-16.517 32.631 0 22.368 18.133 40.5 40.5 40.5 13.39 0 25.258-6.502 32.631-16.517a40.315 40.315 0 0 1-23.983 7.869z" opacity=".1"/><path d="M231.731 362.796a7.5 7.5 0 0 1-7.5-7.5v-15.315a7.5 7.5 0 0 1 15 0v15.315a7.5 7.5 0 0 1-7.5 7.5z" fill="#485458"/><circle cx="231.73" cy="395.8" r="40.5" fill="#e86478"/><path d="M240.379 427.648c-22.367 0-40.5-18.132-40.5-40.5a40.312 40.312 0 0 1 7.869-23.983c-10.015 7.373-16.517 19.241-16.517 32.631 0 22.368 18.133 40.5 40.5 40.5 13.39 0 25.258-6.502 32.631-16.517a40.312 40.312 0 0 1-23.983 7.869z" opacity=".1"/><path d="M209.454 77.588a7.5 7.5 0 0 1-7.5-7.5V54.773a7.5 7.5 0 0 1 15 0v15.315a7.5 7.5 0 0 1-7.5 7.5z" fill="#485458"/><circle cx="209.45" cy="110.59" r="40.5" fill="#e86478"/><path d="M218.101 142.44c-22.367 0-40.5-18.132-40.5-40.5a40.312 40.312 0 0 1 7.869-23.983c-10.015 7.373-16.517 19.241-16.517 32.631 0 22.368 18.132 40.5 40.5 40.5 13.39 0 25.258-6.502 32.631-16.517a40.31 40.31 0 0 1-23.983 7.869z" opacity=".1"/></svg></svg>