<?xml version="1.0" encoding="iso-8859-1"?><svg xmlns="http://www.w3.org/2000/svg" viewBox="0 0 512 512" width="512" height="512"><path d="M302.455 389.417h-92.91L192.256 485.2c-1.822 10.095 4.75 19.798 14.8 21.851a244.519 244.519 0 0 0 97.888 0c10.051-2.053 16.622-11.756 14.8-21.851l-17.289-95.783z" fill="#aa715f"/><path d="M302.455 389.417h-92.91l-9.175 50.827a584.122 584.122 0 0 0 111.259 0l-9.174-50.827z" opacity=".1"/><path d="M229.387 206.257L75.448 336.858c-18.709 15.873-12.425 46.16 11.055 53.279a584.155 584.155 0 0 0 338.994 0c23.48-7.119 29.764-37.407 11.055-53.279L282.613 206.257c-15.352-13.025-37.874-13.025-53.226 0z" fill="#61c6ad"/><path d="M282.613 206.257c-15.352-13.024-37.874-13.024-53.225 0l-105.706 89.681a524.63 524.63 0 0 0 264.638 0l-105.707-89.681z" opacity=".1"/><path d="M232.099 107.017L93.845 224.312c-16.803 14.256-11.159 41.457 9.928 47.851a524.63 524.63 0 0 0 304.453 0c21.087-6.394 26.731-33.595 9.928-47.851L279.901 107.017c-13.787-11.697-34.015-11.697-47.802 0z" fill="#61c6ad"/><path d="M232.099 107.017L93.845 224.312c-16.803 14.256-11.159 41.457 9.928 47.851a524.63 524.63 0 0 0 304.453 0c21.087-6.394 26.731-33.595 9.928-47.851L279.901 107.017c-13.787-11.697-34.015-11.697-47.802 0z" opacity=".15"/><path d="M279.901 107.017c-13.787-11.697-34.015-11.697-47.802 0l-84.193 71.43a465.093 465.093 0 0 0 216.189 0l-84.194-71.43z" opacity=".1"/><path d="M234.811 7.778L112.242 111.765c-14.897 12.638-9.893 36.754 8.802 42.422a465.105 465.105 0 0 0 269.912 0c18.695-5.668 23.699-29.784 8.802-42.422L277.189 7.778c-12.223-10.371-30.155-10.371-42.378 0z" fill="#61c6ad"/><circle cx="326.78" cy="174.16" r="40.5" opacity=".1"/><path d="M149.719 242.712c-19.221 0-35.303 13.394-39.45 31.355a525.26 525.26 0 0 0 30.06 7.747l-25.625 21.74c7.017 12.051 20.065 20.158 35.015 20.158 22.368 0 40.5-18.132 40.5-40.5s-18.132-40.5-40.5-40.5z" opacity=".1"/><circle cx="367.28" cy="314.81" r="40.5" opacity=".1"/><path d="M224.85 362.177c-22.367 0-40.5 18.133-40.5 40.5 0 2.83.292 5.591.845 8.257a584.51 584.51 0 0 0 20.085 2.11l-4.064 22.512a40.303 40.303 0 0 0 23.634 7.62c22.368 0 40.5-18.132 40.5-40.5 0-22.367-18.132-40.499-40.5-40.499z" opacity=".1"/><circle cx="202.57" cy="117.47" r="40.5" opacity=".1"/><path d="M333.66 134.283a7.5 7.5 0 0 1-7.5-7.5v-15.314a7.5 7.5 0 0 1 15 0v15.314a7.5 7.5 0 0 1-7.5 7.5z" fill="#485458"/><circle cx="333.66" cy="167.28" r="40.5" fill="#eeeded"/><path d="M342.308 199.135c-22.367 0-40.5-18.132-40.5-40.5a40.312 40.312 0 0 1 7.869-23.983c-10.015 7.373-16.517 19.241-16.517 32.631 0 22.367 18.133 40.5 40.5 40.5 13.39 0 25.258-6.502 32.631-16.517a40.308 40.308 0 0 1-23.983 7.869z" opacity=".1"/><path d="M156.6 243.331a7.5 7.5 0 0 1-7.5-7.5v-15.315a7.5 7.5 0 0 1 15 0v15.315a7.5 7.5 0 0 1-7.5 7.5z" fill="#485458"/><circle cx="156.6" cy="276.33" r="40.5" fill="#eeeded"/><path d="M165.248 308.183c-22.368 0-40.5-18.132-40.5-40.5a40.312 40.312 0 0 1 7.869-23.983c-10.015 7.373-16.517 19.241-16.517 32.631 0 22.368 18.132 40.5 40.5 40.5 13.39 0 25.258-6.502 32.631-16.517a40.312 40.312 0 0 1-23.983 7.869z" opacity=".1"/><path d="M374.16 274.931a7.5 7.5 0 0 1-7.5-7.5v-15.315a7.5 7.5 0 0 1 15 0v15.315a7.5 7.5 0 0 1-7.5 7.5z" fill="#485458"/><circle cx="374.16" cy="307.93" r="40.5" fill="#f8ca4f"/><path d="M382.808 339.783c-22.367 0-40.5-18.133-40.5-40.5a40.312 40.312 0 0 1 7.869-23.983c-10.015 7.373-16.517 19.241-16.517 32.631 0 22.368 18.133 40.5 40.5 40.5 13.39 0 25.258-6.502 32.631-16.517a40.315 40.315 0 0 1-23.983 7.869z" opacity=".1"/><path d="M231.731 362.796a7.5 7.5 0 0 1-7.5-7.5v-15.315a7.5 7.5 0 0 1 15 0v15.315a7.5 7.5 0 0 1-7.5 7.5z" fill="#485458"/><circle cx="231.73" cy="395.8" r="40.5" fill="#e86478"/><path d="M240.379 427.648c-22.367 0-40.5-18.132-40.5-40.5a40.312 40.312 0 0 1 7.869-23.983c-10.015 7.373-16.517 19.241-16.517 32.631 0 22.368 18.133 40.5 40.5 40.5 13.39 0 25.258-6.502 32.631-16.517a40.312 40.312 0 0 1-23.983 7.869z" opacity=".1"/><path d="M209.454 77.588a7.5 7.5 0 0 1-7.5-7.5V54.773a7.5 7.5 0 0 1 15 0v15.315a7.5 7.5 0 0 1-7.5 7.5z" fill="#485458"/><circle cx="209.45" cy="110.59" r="40.5" fill="#e86478"/><path d="M218.101 142.44c-22.367 0-40.5-18.132-40.5-40.5a40.312 40.312 0 0 1 7.869-23.983c-10.015 7.373-16.517 19.241-16.517 32.631 0 22.368 18.132 40.5 40.5 40.5 13.39 0 25.258-6.502 32.631-16.517a40.31 40.31 0 0 1-23.983 7.869z" opacity=".1"/></svg>